<svg xmlns="http://www.w3.org/2000/svg" xmlns:xlink="http://www.w3.org/1999/xlink" version="1.1" x="0px" y="0px" viewBox="0 0 100 100" enable-background="new 0 0 100 100" xml:space="preserve"><path d="M64,28H36c-0.6,0-1,0.4-1,1v42c0,0.4,0.2,0.7,0.5,0.9c0.3,0.199,0.7,0.1,1-0.101L50,62.2l13.4,9.6  c0.37,0.187,0.695,0.302,1.1,0.101c0.3-0.2,0.5-0.5,0.5-0.9V29C65,28.4,64.6,28,64,28z M56,44h-5v5c0,0.6-0.4,1-1,1  c-0.6,0-1-0.4-1-1v-5h-5c-0.6,0-1-0.4-1-1s0.4-1,1-1h5v-5c0-0.6,0.4-1,1-1c0.6,0,1,0.4,1,1v5h5c0.6,0,1,0.4,1,1S56.6,44,56,44z"></path></svg>