<svg xmlns:dc="http://purl.org/dc/elements/1.1/" xmlns:cc="http://creativecommons.org/ns#" xmlns:rdf="http://www.w3.org/1999/02/22-rdf-syntax-ns#" xmlns:svg="http://www.w3.org/2000/svg" xmlns="http://www.w3.org/2000/svg" xmlns:sodipodi="http://sodipodi.sourceforge.net/DTD/sodipodi-0.dtd" xmlns:inkscape="http://www.inkscape.org/namespaces/inkscape" version="1.1" x="0px" y="0px" viewBox="0 0 100 100"><g transform="translate(0,-952.36218)"><path style="text-indent:0;text-transform:none;direction:ltr;block-progression:tb;baseline-shift:baseline;color:#000000;enable-background:accumulate;" d="m 21,961.36217 c -1.08484,0.015 -1.97542,1.0991 -2,2 l 0,76.00003 c 2.3e-4,1.0182 0.22253,2.1636 1.09375,3 0.87122,0.8364 1.9697,0.9997 2.90625,1 0.36068,0 0.72128,-0.097 1.03125,-0.2813 L 50,1027.7059 l 25.96875,15.375 c 0.30997,0.1845 0.67057,0.2828 1.03125,0.2813 0.93655,-3e-4 2.03503,-0.1636 2.90625,-1 0.87122,-0.8364 1.09352,-1.9818 1.09375,-3 l 0,-76.00003 c -1e-4,-1.0472 -0.95283,-1.9999 -2,-2 l -58,0 z m 2,4 54,0 0,73.65623 -25.96875,-15.375 c -0.61891,-0.3724 -1.44359,-0.3724 -2.0625,0 L 23,1039.0184 23,965.36217 z m 27,11 c -1.1046,0 -2,0.8954 -2,2 l 0,12 -12,0 c -1.1046,0 -2,0.8954 -2,2 0,1.1046 0.8954,2 2,2 l 12,0 0,12.00003 c 0,1.1046 0.8954,2 2,2 1.1046,0 2,-0.8954 2,-2 l 0,-12.00003 12,0 c 1.1046,0 2,-0.8954 2,-2 0,-1.1046 -0.8954,-2 -2,-2 l -12,0 0,-12 c 0,-1.1046 -0.8954,-2 -2,-2 z" fill="#000000" fill-opacity="1" stroke="none" marker="none" visibility="visible" display="inline" overflow="visible"></path></g></svg>