<svg xmlns="http://www.w3.org/2000/svg" xmlns:xlink="http://www.w3.org/1999/xlink" version="1.1" preserveAspectRatio="none" x="0px" y="0px" viewBox="0 0 100 100"><defs><g id="a"><path fill="#000000" stroke="none" d=" M 71.75 13.2 Q 71.0390625 12.4962890625 70 12.5 L 30 12.5 Q 28.9607421875 12.4962890625 28.2 13.2 27.4962890625 13.9607421875 27.5 15 L 27.5 85 Q 27.4962890625 86.0390625 28.2 86.75 28.9607421875 87.503515625 30 87.5 31.0390625 87.503515625 31.75 86.75 L 50 68.55 68.2 86.75 Q 68.9607421875 87.503515625 70 87.5 71.0390625 87.503515625 71.75 86.75 72.503515625 86.0390625 72.5 85 L 72.5 15 Q 72.503515625 13.9607421875 71.75 13.2 M 50 27.5 Q 51.0390625 27.4962890625 51.75 28.2 52.503515625 28.9607421875 52.5 30 L 52.5 37.5 60 37.5 Q 61.0390625 37.4962890625 61.75 38.2 62.503515625 38.9607421875 62.5 40 62.503515625 41.0390625 61.75 41.75 61.0390625 42.503515625 60 42.5 L 52.5 42.5 52.5 50 Q 52.503515625 51.0390625 51.75 51.75 51.0390625 52.503515625 50 52.5 48.9607421875 52.503515625 48.2 51.75 47.4962890625 51.0390625 47.5 50 L 47.5 42.5 40 42.5 Q 38.9607421875 42.503515625 38.2 41.75 37.4962890625 41.0390625 37.5 40 37.4962890625 38.9607421875 38.2 38.2 38.9607421875 37.4962890625 40 37.5 L 47.5 37.5 47.5 30 Q 47.4962890625 28.9607421875 48.2 28.2 48.9607421875 27.4962890625 50 27.5 Z"></path></g></defs><g transform="matrix( 1, 0, 0, 1, 0,0) "><use xlink:href="#a"></use></g></svg>