<?xml version="1.0" encoding="UTF-8" standalone="no"?>
<!DOCTYPE svg PUBLIC "-//W3C//DTD SVG 1.1//EN" "http://www.w3.org/Graphics/SVG/1.1/DTD/svg11.dtd">
<svg version="1.1" xmlns="http://www.w3.org/2000/svg" xmlns:xlink="http://www.w3.org/1999/xlink" preserveAspectRatio="xMidYMid meet" viewBox="0 0 16 16" width="16" height="16"><defs><path d="M5.33 12.8C11.53 12.8 14.98 12.8 15.67 12.8C15.85 12.8 16 12.62 16 12.4C16 11.2 16 1.6 16 0.4C16 0.18 15.85 0 15.67 0C14.4 0 4.27 0 3 0C2.82 0 2.67 0.18 2.67 0.4C2.67 0.64 2.67 2.56 2.67 2.8C2.67 3.02 2.82 3.2 3 3.2C3.69 3.2 7.13 3.2 13.33 3.2L13.33 9.6L5.33 9.6L5.33 6.4L0 11.2L5.33 16L5.33 12.8Z" id="c8tqoF34O"></path></defs><g><g><g><use xlink:href="#c8tqoF34O" opacity="1" fill="#000000" fill-opacity="1"></use><g><use xlink:href="#c8tqoF34O" opacity="1" fill-opacity="0" stroke="#000000" stroke-width="1" stroke-opacity="0"></use></g></g></g></g></svg>