<?xml version="1.0" encoding="UTF-8" standalone="no"?>
<!DOCTYPE svg PUBLIC "-//W3C//DTD SVG 1.1//EN" "http://www.w3.org/Graphics/SVG/1.1/DTD/svg11.dtd">
<svg version="1.1" xmlns="http://www.w3.org/2000/svg" xmlns:xlink="http://www.w3.org/1999/xlink" preserveAspectRatio="xMidYMid meet" viewBox="1.4572649572649574 1.7243589743589691 33.542735042735046 30.551282051282058" width="29.54" height="26.55"><defs><path d="M30.43 12.85L32 16L28.85 16L25.71 16L27.28 12.85L28.85 9.71L30.43 12.85Z" id="b1t10nZlbK"></path><path d="M29.01 16C29.01 16.14 29.01 16.23 29.01 16.27C29.01 23.45 23.18 29.28 16 29.28C16 29.28 16 29.28 16 29.28C16 29.28 16 29.28 16 29.28C8.52 29.28 2.46 23.21 2.46 15.73C2.46 13.13 2.46 18.44 2.46 15.73C2.46 8.55 8.28 2.72 15.47 2.72C15.5 2.72 15.59 2.72 15.73 2.72" id="bE6ydY8vl"></path><path d="M21.88 21.55L15.73 16L15.73 6.81" id="b5rUnkUV7z"></path></defs><g><g><use xlink:href="#b1t10nZlbK" opacity="1" fill="#000000" fill-opacity="1"></use></g><g><g><use xlink:href="#bE6ydY8vl" opacity="1" fill-opacity="0" stroke="#000000" stroke-width="2" stroke-opacity="1"></use></g></g><g><g><use xlink:href="#b5rUnkUV7z" opacity="1" fill-opacity="0" stroke="#000000" stroke-width="1" stroke-opacity="1"></use></g></g></g></svg>