<?xml version="1.0" encoding="UTF-8" standalone="no"?>
<!DOCTYPE svg PUBLIC "-//W3C//DTD SVG 1.1//EN" "http://www.w3.org/Graphics/SVG/1.1/DTD/svg11.dtd">
<svg version="1.1" xmlns="http://www.w3.org/2000/svg" xmlns:xlink="http://www.w3.org/1999/xlink" preserveAspectRatio="xMidYMid meet" viewBox="1.4572649572649574 1.7243589743589691 33.542735042735046 30.551282051282058" width="29.54" height="26.55"><defs><path d="M30.43 19.15L32 16L28.85 16L25.71 16L27.28 19.15L28.85 22.29L30.43 19.15Z" id="b1yJ6cHumW"></path><path d="M20 15.07L24 23.07L16 23.07L8 23.07L12 15.07L16 7.07L20 15.07Z" id="boBeMcfm"></path><path d="M29.01 16C29.01 15.86 29.01 15.77 29.01 15.73C29.01 8.55 23.18 2.72 16 2.72C16 2.72 16 2.72 16 2.72C16 2.72 16 2.72 16 2.72C8.52 2.72 2.46 8.79 2.46 16.27C2.46 18.87 2.46 13.56 2.46 16.27C2.46 23.45 8.28 29.28 15.47 29.28C15.5 29.28 15.59 29.28 15.73 29.28" id="gUT4ux6e4"></path></defs><g><g><use xlink:href="#b1yJ6cHumW" opacity="1" fill="#000000" fill-opacity="1"></use></g><g><use xlink:href="#boBeMcfm" opacity="1" fill="#ff0000" fill-opacity="1"></use></g><g><g><use xlink:href="#gUT4ux6e4" opacity="1" fill-opacity="0" stroke="#000000" stroke-width="2" stroke-opacity="1"></use></g></g></g></svg>