<?xml version="1.0" encoding="UTF-8" standalone="no"?>
<!DOCTYPE svg PUBLIC "-//W3C//DTD SVG 1.1//EN" "http://www.w3.org/Graphics/SVG/1.1/DTD/svg11.dtd">
<svg version="1.1" xmlns="http://www.w3.org/2000/svg" xmlns:xlink="http://www.w3.org/1999/xlink" preserveAspectRatio="xMidYMid meet" viewBox="0 0 16 16" width="16" height="16"><defs><path d="M15.59 6.68C15.86 7.02 16 7.48 16 7.99C16 8.5 15.86 8.95 15.59 9.3C15.13 9.91 11.49 14.84 11.03 15.45C10.49 16.18 9.61 16.18 9.07 15.45C8.53 14.72 8.53 13.54 9.07 12.81C9.21 12.62 9.94 11.64 11.25 9.87C5.34 9.87 2.05 9.87 1.39 9.87C0.62 9.87 0 9.03 0 8C0 6.97 0.62 6.13 1.39 6.13C2.05 6.13 5.34 6.13 11.25 6.13C9.94 4.36 9.21 3.38 9.06 3.19C8.52 2.46 8.52 1.28 9.06 0.55C9.61 -0.18 10.49 -0.18 11.03 0.55C11.94 1.77 15.14 6.07 15.59 6.68Z" id="be6iQTcDH"></path></defs><g><g><g><use xlink:href="#be6iQTcDH" opacity="1" fill="#000000" fill-opacity="1"></use><g><use xlink:href="#be6iQTcDH" opacity="1" fill-opacity="0" stroke="#000000" stroke-width="1" stroke-opacity="0"></use></g></g></g></g></svg>