<?xml version="1.0" encoding="UTF-8" standalone="no"?>
<!DOCTYPE svg PUBLIC "-//W3C//DTD SVG 1.1//EN" "http://www.w3.org/Graphics/SVG/1.1/DTD/svg11.dtd">
<svg version="1.1" xmlns="http://www.w3.org/2000/svg" xmlns:xlink="http://www.w3.org/1999/xlink" preserveAspectRatio="xMidYMid meet" viewBox="1.7243589743589745 1.724358974358971 30.551282051282055 31.91569760296104" width="26.55" height="27.92"><defs><path d="M20.01 30.24L23.5 30.64L22.43 27.68L21.35 24.73L18.93 27.28L16.52 29.84L20.01 30.24Z" id="aZw9W0Al"></path><path d="M29.28 16C29.28 15.86 29.28 15.77 29.28 15.73C29.28 8.55 23.45 2.72 16.27 2.72C16.27 2.72 16.27 2.72 16.27 2.72C16.27 2.72 16.27 2.72 16.27 2.72C8.79 2.72 2.72 8.79 2.72 16.27C2.72 18.87 2.72 13.56 2.72 16.27C2.72 23.45 8.55 29.28 15.73 29.28C15.77 29.28 15.86 29.28 16 29.28" id="k2naHbYLQw"></path><path d="M19.68 28.84C19.68 28.84 19.68 28.84 19.68 28.84C26.84 26.66 30.87 19.09 28.68 11.94C27.92 9.45 29.47 14.53 28.68 11.94C26.58 5.07 19.31 1.2 12.44 3.29C12.41 3.3 12.32 3.33 12.19 3.37" id="b2zyprMK6"></path></defs><g><g><use xlink:href="#aZw9W0Al" opacity="1" fill="#000000" fill-opacity="1"></use></g><g><g><use xlink:href="#k2naHbYLQw" opacity="1" fill-opacity="0" stroke="#000000" stroke-width="2" stroke-opacity="1"></use></g></g><g><g><use xlink:href="#b2zyprMK6" opacity="1" fill-opacity="0" stroke="#000000" stroke-width="2" stroke-opacity="1"></use></g></g></g></svg>