<?xml version="1.0" encoding="UTF-8" standalone="no"?>
<!DOCTYPE svg PUBLIC "-//W3C//DTD SVG 1.1//EN" "http://www.w3.org/Graphics/SVG/1.1/DTD/svg11.dtd">
<svg version="1.1" xmlns="http://www.w3.org/2000/svg" xmlns:xlink="http://www.w3.org/1999/xlink" preserveAspectRatio="xMidYMid meet" viewBox="2.113937914020614 -0.6990972918756277 31.690271861691993 35.48978555509417" width="27.69" height="31.49"><defs><path d="M29.23 28.33L30.8 25.19L27.66 25.19L24.51 25.19L26.09 28.33L27.66 31.48L29.23 28.33Z" id="g1tdBcBPVu"></path><path d="M27.64 27.79C27.65 27.29 27.66 26.97 27.66 26.85C27.83 14.44 17.82 4.3 5.41 4.3C5.41 4.3 5.41 4.3 5.41 4.3" id="a3xt8UKSoY"></path><path d="M7.11 6.3L3.11 8.3L3.11 4.3L3.11 0.3L7.11 2.3L11.11 4.3L7.11 6.3Z" id="bxuQ4QGfz"></path><path d="M7.11 29.79L3.11 31.79L3.11 27.79L3.11 23.79L7.11 25.79L11.11 27.79L7.11 29.79Z" id="a3o3ZKL92N"></path><path d="M7.11 18L3.11 20L3.11 16L3.11 12L7.11 14L11.11 16L7.11 18Z" id="jkxBdgWiP"></path><path d="M6.45 27.79C6.45 28.37 5.99 28.83 5.41 28.83C4.84 28.83 4.37 28.37 4.37 27.79C4.37 27.22 4.84 26.75 5.41 26.75C5.99 26.75 6.45 27.22 6.45 27.79Z" id="b5LpTrFUYG"></path></defs><g><g><use xlink:href="#g1tdBcBPVu" opacity="1" fill="#000000" fill-opacity="1"></use></g><g><g><use xlink:href="#a3xt8UKSoY" opacity="1" fill-opacity="0" stroke="#000000" stroke-width="2" stroke-opacity="1"></use></g></g><g><use xlink:href="#bxuQ4QGfz" opacity="1" fill="#ff0000" fill-opacity="1"></use></g><g><use xlink:href="#a3o3ZKL92N" opacity="1" fill="#ff0000" fill-opacity="1"></use></g><g><use xlink:href="#jkxBdgWiP" opacity="1" fill="#ff0000" fill-opacity="1"></use></g><g><use xlink:href="#b5LpTrFUYG" opacity="1" fill="#000000" fill-opacity="1"></use></g></g></svg>