<?xml version="1.0" encoding="UTF-8" standalone="no"?>
<!DOCTYPE svg PUBLIC "-//W3C//DTD SVG 1.1//EN" "http://www.w3.org/Graphics/SVG/1.1/DTD/svg11.dtd">
<svg version="1.1" xmlns="http://www.w3.org/2000/svg" xmlns:xlink="http://www.w3.org/1999/xlink" preserveAspectRatio="xMidYMid meet" viewBox="1.458420652531231 0 30.65137163233539 33.80976565472116" width="26.65" height="29.81"><defs><path d="M18.45 5.72L15.3 7.29L15.3 4.15L15.3 1L18.45 2.57L21.59 4.15L18.45 5.72Z" id="k5h4qnO5L7"></path><path d="M16 4.26C16 4.26 16 4.26 16 4.26C8.52 4.26 2.46 10.32 2.46 17.8C2.46 20.4 2.46 15.09 2.46 17.8C2.46 24.99 8.28 30.81 15.47 30.81C15.5 30.81 15.59 30.81 15.73 30.81" id="jlv8A0JeY"></path><path d="M15.57 4.26C15.57 4.26 15.57 4.26 15.57 4.26C23.05 4.26 29.11 10.32 29.11 17.8C29.11 20.4 29.11 15.09 29.11 17.8C29.11 24.99 23.29 30.81 16.1 30.81C16.06 30.81 15.98 30.81 15.83 30.81" id="c2vluN1jvj"></path></defs><g><g><use xlink:href="#k5h4qnO5L7" opacity="1" fill="#000000" fill-opacity="1"></use></g><g><g><use xlink:href="#jlv8A0JeY" opacity="1" fill-opacity="0" stroke="#000000" stroke-width="2" stroke-opacity="1"></use></g></g><g></g></g></svg>