<?xml version="1.0" encoding="UTF-8" standalone="no"?>
<!DOCTYPE svg PUBLIC "-//W3C//DTD SVG 1.1//EN" "http://www.w3.org/Graphics/SVG/1.1/DTD/svg11.dtd">
<svg version="1.1" xmlns="http://www.w3.org/2000/svg" xmlns:xlink="http://www.w3.org/1999/xlink" preserveAspectRatio="xMidYMid meet" viewBox="0 0 16 16" width="16" height="16"><defs><path d="M6.68 0.41C7.02 0.14 7.48 0 7.99 0C8.5 0 8.95 0.14 9.3 0.41C9.91 0.87 14.84 4.51 15.45 4.97C16.18 5.51 16.18 6.39 15.45 6.93C14.72 7.47 13.54 7.47 12.81 6.93C12.62 6.79 11.64 6.06 9.87 4.75C9.87 10.66 9.87 13.95 9.87 14.61C9.87 15.38 9.03 16 8 16C6.97 16 6.13 15.38 6.13 14.61C6.13 13.95 6.13 10.66 6.13 4.75C4.36 6.06 3.38 6.79 3.19 6.94C2.46 7.48 1.28 7.48 0.55 6.94C-0.18 6.39 -0.18 5.51 0.55 4.97C1.77 4.06 6.07 0.87 6.68 0.41Z" id="kfOcgrTQE"></path></defs><g><g><g><use xlink:href="#kfOcgrTQE" opacity="1" fill="#000000" fill-opacity="1"></use><g><use xlink:href="#kfOcgrTQE" opacity="1" fill-opacity="0" stroke="#000000" stroke-width="1" stroke-opacity="0"></use></g></g></g></g></svg>