<?xml version="1.0" encoding="UTF-8" standalone="no"?>
<!DOCTYPE svg PUBLIC "-//W3C//DTD SVG 1.1//EN" "http://www.w3.org/Graphics/SVG/1.1/DTD/svg11.dtd">
<svg version="1.1" xmlns="http://www.w3.org/2000/svg" xmlns:xlink="http://www.w3.org/1999/xlink" preserveAspectRatio="xMidYMid meet" viewBox="0 0 16 16" width="16" height="16"><defs><path d="M12.43 1.7C12.87 1.75 13.29 1.98 13.65 2.33C14.01 2.69 14.23 3.11 14.28 3.55C14.4 4.31 15.3 10.37 15.41 11.13C15.55 12.02 14.92 12.65 14.02 12.51C13.13 12.38 12.29 11.55 12.16 10.65C12.12 10.41 11.94 9.2 11.62 7.02C7.44 11.2 5.11 13.53 4.65 13.99C4.1 14.54 3.07 14.39 2.34 13.66C1.61 12.93 1.46 11.89 2.01 11.35C2.47 10.89 4.8 8.56 8.98 4.38C6.8 4.06 5.59 3.88 5.35 3.84C4.45 3.71 3.62 2.88 3.48 1.98C3.35 1.08 3.97 0.46 4.87 0.59C6.39 0.81 11.68 1.59 12.43 1.7Z" id="bscLukixR"></path></defs><g><g><g><use xlink:href="#bscLukixR" opacity="1" fill="#000000" fill-opacity="1"></use><g><use xlink:href="#bscLukixR" opacity="1" fill-opacity="0" stroke="#000000" stroke-width="1" stroke-opacity="0"></use></g></g></g></g></svg>