<?xml version="1.0" encoding="UTF-8" standalone="no"?>
<!DOCTYPE svg PUBLIC "-//W3C//DTD SVG 1.1//EN" "http://www.w3.org/Graphics/SVG/1.1/DTD/svg11.dtd">
<svg version="1.1" xmlns="http://www.w3.org/2000/svg" xmlns:xlink="http://www.w3.org/1999/xlink" preserveAspectRatio="xMidYMid meet" viewBox="0 0 16 16" width="16" height="16"><defs><path d="M1.7 3.57C1.75 3.13 1.98 2.71 2.34 2.35C2.69 1.99 3.11 1.77 3.55 1.72C4.31 1.6 10.37 0.7 11.13 0.59C12.02 0.45 12.65 1.08 12.51 1.98C12.38 2.87 11.55 3.71 10.65 3.84C10.41 3.88 9.2 4.06 7.02 4.38C11.21 8.56 13.53 10.89 13.99 11.35C14.54 11.9 14.39 12.93 13.66 13.66C12.93 14.39 11.89 14.54 11.35 14C10.89 13.53 8.56 11.21 4.38 7.02C4.06 9.2 3.88 10.41 3.84 10.65C3.71 11.55 2.88 12.38 1.98 12.52C1.08 12.65 0.46 12.03 0.59 11.13C0.81 9.61 1.59 4.32 1.7 3.57Z" id="b6mn2ZCkTr"></path></defs><g><g><g><use xlink:href="#b6mn2ZCkTr" opacity="1" fill="#000000" fill-opacity="1"></use><g><use xlink:href="#b6mn2ZCkTr" opacity="1" fill-opacity="0" stroke="#000000" stroke-width="1" stroke-opacity="0"></use></g></g></g></g></svg>