<?xml version="1.0" encoding="UTF-8" standalone="no"?>
<!DOCTYPE svg PUBLIC "-//W3C//DTD SVG 1.1//EN" "http://www.w3.org/Graphics/SVG/1.1/DTD/svg11.dtd">
<svg version="1.1" xmlns="http://www.w3.org/2000/svg" xmlns:xlink="http://www.w3.org/1999/xlink" preserveAspectRatio="xMidYMid meet" viewBox="1.3569640545568413 -0.6990972918756277 32.23882330752942 35.48978555509417" width="28.24" height="31.49"><defs><path d="M29.02 19.15L30.6 16L27.45 16L24.31 16L25.88 19.15L27.45 22.29L29.02 19.15Z" id="f2wD4I5Z48"></path><path d="M17.11 6.3L13.11 8.3L13.11 4.3L13.11 0.3L17.11 2.3L21.11 4.3L17.11 6.3Z" id="b4grq1D2JC"></path><path d="M17.11 29.79L13.11 31.79L13.11 27.79L13.11 23.79L17.11 25.79L21.11 27.79L17.11 29.79Z" id="a1a0iJ5LlV"></path><path d="M27.5 16C27.5 15.87 27.5 15.78 27.5 15.75C27.5 8.94 21.99 3.43 15.18 3.43C15.18 3.43 15.18 3.43 15.18 3.43C15.18 3.43 15.18 3.43 15.18 3.43C8.1 3.43 2.36 9.17 2.36 16.25C2.36 18.72 2.36 13.69 2.36 16.25C2.36 23.06 7.87 28.57 14.68 28.57C14.71 28.57 14.8 28.57 14.93 28.57" id="b1dEhzJvus"></path><path d="M17.11 18L13.11 20L13.11 16L13.11 12L17.11 14L21.11 16L17.11 18Z" id="d5Os0vNhwW"></path><path d="M16.77 16C16.77 16.57 16.31 17.04 15.73 17.04C15.16 17.04 14.69 16.57 14.69 16C14.69 15.43 15.16 14.96 15.73 14.96C16.31 14.96 16.77 15.43 16.77 16Z" id="h3nHB26gCG"></path></defs><g><g><use xlink:href="#f2wD4I5Z48" opacity="1" fill="#000000" fill-opacity="1"></use></g><g><use xlink:href="#b4grq1D2JC" opacity="1" fill="#ff0000" fill-opacity="1"></use></g><g><use xlink:href="#a1a0iJ5LlV" opacity="1" fill="#ff0000" fill-opacity="1"></use></g><g><g><use xlink:href="#b1dEhzJvus" opacity="1" fill-opacity="0" stroke="#000000" stroke-width="2" stroke-opacity="1"></use></g></g><g><use xlink:href="#d5Os0vNhwW" opacity="1" fill="#ff0000" fill-opacity="1"></use></g><g><use xlink:href="#h3nHB26gCG" opacity="1" fill="#000000" fill-opacity="1"></use></g></g></svg>