<?xml version="1.0" encoding="UTF-8" standalone="no"?>
<!DOCTYPE svg PUBLIC "-//W3C//DTD SVG 1.1//EN" "http://www.w3.org/Graphics/SVG/1.1/DTD/svg11.dtd">
<svg version="1.1" xmlns="http://www.w3.org/2000/svg" xmlns:xlink="http://www.w3.org/1999/xlink" preserveAspectRatio="xMidYMid meet" viewBox="0 0 16 16" width="16" height="16"><defs><path d="M9.32 15.59C8.98 15.86 8.52 16 8.01 16C7.5 16 7.05 15.86 6.7 15.59C6.09 15.13 1.16 11.49 0.55 11.03C-0.18 10.49 -0.18 9.61 0.55 9.07C1.28 8.53 2.46 8.53 3.19 9.07C3.38 9.21 4.36 9.94 6.13 11.25C6.13 5.34 6.13 2.05 6.13 1.39C6.13 0.62 6.97 0 8 0C9.03 0 9.87 0.62 9.87 1.39C9.87 2.05 9.87 5.34 9.87 11.25C11.64 9.94 12.62 9.21 12.81 9.06C13.54 8.52 14.72 8.52 15.45 9.06C16.18 9.61 16.18 10.49 15.45 11.03C14.23 11.94 9.93 15.14 9.32 15.59Z" id="ct6WwuZjD"></path></defs><g><g><g><use xlink:href="#ct6WwuZjD" opacity="1" fill="#000000" fill-opacity="1"></use><g><use xlink:href="#ct6WwuZjD" opacity="1" fill-opacity="0" stroke="#000000" stroke-width="1" stroke-opacity="0"></use></g></g></g></g></svg>