<?xml version="1.0" encoding="UTF-8" standalone="no"?>
<!DOCTYPE svg PUBLIC "-//W3C//DTD SVG 1.1//EN" "http://www.w3.org/Graphics/SVG/1.1/DTD/svg11.dtd">
<svg version="1.1" xmlns="http://www.w3.org/2000/svg" xmlns:xlink="http://www.w3.org/1999/xlink" preserveAspectRatio="xMidYMid meet" viewBox="0 0 16 16" width="16" height="16"><defs><path d="M14.3 12.43C14.25 12.87 14.02 13.29 13.67 13.65C13.31 14.01 12.89 14.23 12.45 14.28C11.69 14.4 5.63 15.3 4.87 15.41C3.98 15.55 3.35 14.92 3.49 14.02C3.62 13.13 4.45 12.29 5.35 12.16C5.59 12.12 6.8 11.94 8.98 11.62C4.8 7.44 2.47 5.11 2.01 4.65C1.46 4.1 1.61 3.07 2.34 2.34C3.07 1.61 4.11 1.46 4.65 2C5.11 2.47 7.44 4.79 11.62 8.98C11.94 6.8 12.12 5.59 12.16 5.35C12.29 4.45 13.12 3.62 14.02 3.48C14.92 3.35 15.54 3.97 15.41 4.87C15.19 6.39 14.41 11.68 14.3 12.43Z" id="b7iHNhqLk"></path></defs><g><g><g><use xlink:href="#b7iHNhqLk" opacity="1" fill="#000000" fill-opacity="1"></use><g><use xlink:href="#b7iHNhqLk" opacity="1" fill-opacity="0" stroke="#000000" stroke-width="1" stroke-opacity="0"></use></g></g></g></g></svg>