<?xml version="1.0" encoding="UTF-8" standalone="no"?>
<!DOCTYPE svg PUBLIC "-//W3C//DTD SVG 1.1//EN" "http://www.w3.org/Graphics/SVG/1.1/DTD/svg11.dtd">
<svg version="1.1" xmlns="http://www.w3.org/2000/svg" xmlns:xlink="http://www.w3.org/1999/xlink" preserveAspectRatio="xMidYMid meet" viewBox="0 0 16 16" width="16" height="16"><defs><path d="M3.57 14.3C3.13 14.25 2.71 14.02 2.35 13.67C1.99 13.31 1.77 12.89 1.72 12.45C1.6 11.69 0.7 5.63 0.59 4.87C0.45 3.98 1.08 3.35 1.98 3.49C2.87 3.62 3.71 4.45 3.84 5.35C3.88 5.59 4.06 6.8 4.38 8.98C8.56 4.8 10.89 2.47 11.35 2.01C11.9 1.46 12.93 1.61 13.66 2.34C14.39 3.07 14.54 4.11 14 4.65C13.53 5.11 11.21 7.44 7.02 11.62C9.2 11.94 10.41 12.12 10.65 12.16C11.55 12.29 12.38 13.12 12.52 14.02C12.65 14.92 12.03 15.54 11.13 15.41C9.61 15.19 4.32 14.41 3.57 14.3Z" id="a1a82d9dvu"></path></defs><g><g><g><use xlink:href="#a1a82d9dvu" opacity="1" fill="#000000" fill-opacity="1"></use><g><use xlink:href="#a1a82d9dvu" opacity="1" fill-opacity="0" stroke="#000000" stroke-width="1" stroke-opacity="0"></use></g></g></g></g></svg>