<?xml version="1.0" encoding="UTF-8" standalone="no"?>
<!DOCTYPE svg PUBLIC "-//W3C//DTD SVG 1.1//EN" "http://www.w3.org/Graphics/SVG/1.1/DTD/svg11.dtd">
<svg version="1.1" xmlns="http://www.w3.org/2000/svg" xmlns:xlink="http://www.w3.org/1999/xlink" preserveAspectRatio="xMidYMid meet" viewBox="0 0 16 16" width="16" height="16"><defs><path d="M0.41 9.32C0.14 8.98 0 8.52 0 8.01C0 7.5 0.14 7.05 0.41 6.7C0.87 6.09 4.51 1.16 4.97 0.55C5.51 -0.18 6.39 -0.18 6.93 0.55C7.47 1.28 7.47 2.46 6.93 3.19C6.79 3.38 6.06 4.36 4.75 6.13C10.66 6.13 13.95 6.13 14.61 6.13C15.38 6.13 16 6.97 16 8C16 9.03 15.38 9.87 14.61 9.87C13.95 9.87 10.66 9.87 4.75 9.87C6.06 11.64 6.79 12.62 6.94 12.81C7.48 13.54 7.48 14.72 6.94 15.45C6.39 16.18 5.51 16.18 4.97 15.45C4.06 14.23 0.86 9.93 0.41 9.32Z" id="a3dM9FYUUj"></path></defs><g><g><g><use xlink:href="#a3dM9FYUUj" opacity="1" fill="#000000" fill-opacity="1"></use><g><use xlink:href="#a3dM9FYUUj" opacity="1" fill-opacity="0" stroke="#000000" stroke-width="1" stroke-opacity="0"></use></g></g></g></g></svg>