<?xml version="1.0" encoding="UTF-8" standalone="no"?>
<!DOCTYPE svg PUBLIC "-//W3C//DTD SVG 1.1//EN" "http://www.w3.org/Graphics/SVG/1.1/DTD/svg11.dtd">
<svg version="1.1" xmlns="http://www.w3.org/2000/svg" xmlns:xlink="http://www.w3.org/1999/xlink" preserveAspectRatio="xMidYMid meet" viewBox="0 0 16 16" width="16" height="16"><defs><path d="M5.33 3.2C11.53 3.2 14.98 3.2 15.67 3.2C15.85 3.2 16 3.38 16 3.6C16 4.8 16 14.4 16 15.6C16 15.82 15.85 16 15.67 16C14.4 16 4.27 16 3 16C2.82 16 2.67 15.82 2.67 15.6C2.67 15.36 2.67 13.44 2.67 13.2C2.67 12.98 2.82 12.8 3 12.8C3.69 12.8 7.13 12.8 13.33 12.8L13.33 6.4L5.33 6.4L5.33 9.6L0 4.8L5.33 0L5.33 3.2Z" id="c1xQCYAdEX"></path></defs><g><g><g><use xlink:href="#c1xQCYAdEX" opacity="1" fill="#000000" fill-opacity="1"></use><g><use xlink:href="#c1xQCYAdEX" opacity="1" fill-opacity="0" stroke="#000000" stroke-width="1" stroke-opacity="0"></use></g></g></g></g></svg>